<?xml version="1.0" encoding="utf-8"?>
<!-- Generator: Adobe Illustrator 22.1.0, SVG Export Plug-In . SVG Version: 6.00 Build 0)  -->
<svg version="1.1" id="Layer_1" xmlns="http://www.w3.org/2000/svg" xmlns:xlink="http://www.w3.org/1999/xlink" x="0px" y="0px"
	 viewBox="0 0 523 291" style="enable-background:new 0 0 523 291;" xml:space="preserve">
<style type="text/css">
	.st0{fill:#FFFFFF;}
</style>
<g>
	<path class="st0" d="M113.1,109.1V38.8h45.5c12.7,0,28.4,0.8,28.4,19.3c0,6.7-5.7,11.3-9.2,12.3c5.7,0.8,15.4,5.3,15.4,17.4
		c0,17.5-15.5,21.3-29.1,21.3H113.1z M128.4,51v16.4h31.2c6.4,0,11.2-2.1,11.2-8.3c0-6.2-5-8.1-11.2-8.1H128.4z M128.4,78.5v18.3
		h35.6c7.3,0,12.9-1.8,12.9-9.1c0-7.1-5.6-9.2-12.9-9.2H128.4z"/>
	<path class="st0" d="M211.4,109.1V38.8h15.3v70.3H211.4z"/>
	<path class="st0" d="M296,67.5l34.9,41.6h-19.9l-26.7-31.6l-18.5,15.7v16h-15.3V38.8h15.3v36.7l44-36.7h20L296,67.5z"/>
	<path class="st0" d="M343.8,109.1V38.8h71V51h-55.7V68h45.6v11.1h-45.6V97h55.7v12H343.8z"/>
	<path class="st0" d="M27.2,222.3v25.8H11.9v-70.3h70.6v13.4H27.3v18.6h45.2v12.5H27.2z"/>
	<path class="st0" d="M99.5,248.1v-70.3h15.3v70.3H99.5z"/>
	<path class="st0" d="M153.9,204.5v43.5h-15.3v-71.4l66.4,44.8v-43.7h15.3v71.7L153.9,204.5z"/>
	<path class="st0" d="M244,248.1v-70.3h42c21.6,0,45.2,10.2,45.2,35.1c0,25.1-23.7,35.1-45.2,35.1H244z M284.2,234.9
		c14.7,0,30.7-4.8,30.7-22c0-17.1-16-22-30.7-22h-24.9v44H284.2z"/>
	<path class="st0" d="M349.9,248.1v-70.3h71V190h-55.7V207h45.6v11.1h-45.6V236h55.7v12H349.9z"/>
	<path class="st0" d="M499.9,248.1l-14.8-22H455v22h-15.3v-70.3h48c20.2,0,27.7,13.2,27.7,24.1c0,8.5-4.2,17.8-14.7,22l16.2,24.2
		H499.9z M455,191.4v21.3h30.5c11.6,0,13.6-5.7,13.6-10.8c0-4.6-2-10.5-13.6-10.5H455z"/>
</g>
</svg>
