<?xml version="1.0" encoding="UTF-8" standalone="no"?>
<svg id="svg4878" xmlns:rdf="http://www.w3.org/1999/02/22-rdf-syntax-ns#" xmlns="http://www.w3.org/2000/svg" height="612" width="612" version="1.0" xmlns:cc="http://creativecommons.org/ns#" xmlns:dc="http://purl.org/dc/elements/1.1/">
 <metadata id="metadata3">
  <rdf:RDF>
   <cc:Work rdf:about="">
    <dc:title>AIGA_Symbol_Signs</dc:title>
    <dc:description>EPS converted from  http://aiga.org</dc:description>
    <dc:subject>
     <rdf:Bag>
      <rdf:li>symbol</rdf:li>
      <rdf:li>mapsym</rdf:li>
     </rdf:Bag>
    </dc:subject>
    <dc:publisher>
     <cc:Agent rdf:about="http://www.openclipart.org/">
      <dc:title>Open Clip Art Library</dc:title>
     </cc:Agent>
    </dc:publisher>
    <dc:creator>
     <cc:Agent>
      <dc:title>Jean-Victor Balin</dc:title>
     </cc:Agent>
    </dc:creator>
    <dc:rights>
     <cc:Agent>
      <dc:title>Jean-Victor Balin</dc:title>
     </cc:Agent>
    </dc:rights>
    <dc:date/>
    <dc:format>image/svg+xml</dc:format>
    <dc:type rdf:resource="http://purl.org/dc/dcmitype/StillImage"/>
    <cc:license rdf:resource="http://web.resource.org/cc/PublicDomain"/>
    <dc:language>en</dc:language>
   </cc:Work>
   <cc:License rdf:about="http://web.resource.org/cc/PublicDomain">
    <cc:permits rdf:resource="http://web.resource.org/cc/Reproduction"/>
    <cc:permits rdf:resource="http://web.resource.org/cc/Distribution"/>
    <cc:permits rdf:resource="http://web.resource.org/cc/DerivativeWorks"/>
   </cc:License>
  </rdf:RDF>
 </metadata>
 <g id="g4888" transform="translate(-.0819 -.58539)">
  <path id="path4890" d="m82.432 17.924c-41.335 0-64.571 21.371-64.571 65.036v450.12c0 40.84 20.891 62.23 62.192 62.23h452.03c41.3 0 62.22-20.32 62.22-62.23v-450.12c0-42.6-20.92-65.036-63.52-65.036 0 0-448.49-0.142-448.35 0z" stroke="#fff" stroke-width="3.408"/>
  <g id="g4892">
   <path id="path4894" fill="#fff" d="m176.58 106.75h166.59c72.85 0 126.52 65.18 126.52 132.27 0 75.43-63.86 131.78-130 131.78h-87.39v128.94h-75.72v-392.99z"/>
   <path id="path4896" d="m253.26 179.6h86.08c27.79 0 55.85 25.84 55.85 60.35 0 34.5-26.14 58.46-56.81 58.46h-85.12v-118.81z"/>
  </g>
 </g>
</svg>
