<?xml version="1.0" encoding="iso-8859-1"?>
<!-- Generator: Adobe Illustrator 16.0.0, SVG Export Plug-In . SVG Version: 6.00 Build 0)  -->
<!DOCTYPE svg PUBLIC "-//W3C//DTD SVG 1.1//EN" "http://www.w3.org/Graphics/SVG/1.1/DTD/svg11.dtd">
<svg version="1.1" id="Capa_1" xmlns="http://www.w3.org/2000/svg" xmlns:xlink="http://www.w3.org/1999/xlink" x="0px" y="0px"
	 width="94.49px" height="94.49px" viewBox="0 0 94.49 94.49" style="enable-background:new 0 0 94.49 94.49;" xml:space="preserve"
	>
<g>
	<path d="M92.49,35.284H59.206V2c0-1.104-0.896-2-2-2H37.284c-1.104,0-2,0.896-2,2v33.284H2c-1.104,0-2,0.896-2,2v19.922
		c0,1.104,0.896,2,2,2h33.284V92.49c0,1.104,0.896,2,2,2h19.922c1.104,0,2-0.896,2-2V59.206H92.49c1.104,0,2-0.896,2-2V37.284
		C94.49,36.18,93.596,35.284,92.49,35.284z"/>
</g>
<g>
</g>
<g>
</g>
<g>
</g>
<g>
</g>
<g>
</g>
<g>
</g>
<g>
</g>
<g>
</g>
<g>
</g>
<g>
</g>
<g>
</g>
<g>
</g>
<g>
</g>
<g>
</g>
<g>
</g>
</svg>
